<?xml version="1.0" standalone="no"?>
<!DOCTYPE svg PUBLIC "-//W3C//DTD SVG 20010904//EN"
 "http://www.w3.org/TR/2001/REC-SVG-20010904/DTD/svg10.dtd">
<svg version="1.0" xmlns="http://www.w3.org/2000/svg"
 width="512.000000pt" height="512.000000pt" viewBox="0 0 512.000000 512.000000"
 preserveAspectRatio="xMidYMid meet">
<metadata>
Created by potrace 1.11, written by Peter Selinger 2001-2013
</metadata>
<g transform="translate(0.000000,512.000000) scale(0.100000,-0.100000)"
fill="#000000" stroke="none">
<path d="M1550 4387 c-553 -320 -1023 -592 -1043 -604 l-37 -22 0 -1199 c0
-948 3 -1202 13 -1210 6 -5 477 -278 1045 -606 l1032 -596 1033 596 c567 328
1038 601 1045 606 18 15 18 2401 0 2416 -14 11 -2077 1202 -2081 1201 -1 0
-454 -262 -1007 -582z m1904 -165 c483 -279 879 -512 878 -517 0 -16 -1756
-1025 -1777 -1021 -29 5 -1764 1009 -1765 1021 -1 12 1748 1024 1770 1025 8 0
410 -229 894 -508z m-1874 -1209 l880 -508 0 -1033 c0 -858 -2 -1032 -13
-1025 -8 4 -410 237 -895 517 l-882 510 0 1029 c0 919 2 1029 15 1023 9 -3
411 -234 895 -513z m2870 -511 l0 -1029 -872 -503 c-480 -277 -883 -510 -895
-518 l-23 -14 0 1033 0 1034 888 512 c488 282 890 513 895 513 4 0 7 -463 7
-1028z"/>
</g>
</svg>
